<svg width="96" height="16" viewBox="0 0 96 16" fill="none" xmlns="http://www.w3.org/2000/svg">
<path d="M9.15327 2.33977L10.3266 4.68643C10.4866 5.0131 10.9133 5.32643 11.2733 5.38643L13.3999 5.73977C14.7599 5.96643 15.0799 6.9531 14.0999 7.92643L12.4466 9.57977C12.1666 9.85977 12.0133 10.3998 12.0999 10.7864L12.5733 12.8331C12.9466 14.4531 12.0866 15.0798 10.6533 14.2331L8.65994 13.0531C8.29994 12.8398 7.70661 12.8398 7.33994 13.0531L5.34661 14.2331C3.91994 15.0798 3.05327 14.4464 3.42661 12.8331L3.89994 10.7864C3.98661 10.3998 3.83327 9.85977 3.55327 9.57977L1.89994 7.92643C0.926606 6.9531 1.23994 5.96643 2.59994 5.73977L4.72661 5.38643C5.07994 5.32643 5.50661 5.0131 5.66661 4.68643L6.83994 2.33977C7.47994 1.06643 8.51994 1.06643 9.15327 2.33977Z" fill="#F2BC1B" stroke="#F2BC1B" stroke-width="1.5" stroke-linecap="round" stroke-linejoin="round"/>
<path d="M29.1533 2.33977L30.3266 4.68643C30.4866 5.0131 30.9133 5.32643 31.2733 5.38643L33.3999 5.73977C34.7599 5.96643 35.0799 6.9531 34.0999 7.92643L32.4466 9.57977C32.1666 9.85977 32.0133 10.3998 32.0999 10.7864L32.5733 12.8331C32.9466 14.4531 32.0866 15.0798 30.6533 14.2331L28.6599 13.0531C28.2999 12.8398 27.7066 12.8398 27.3399 13.0531L25.3466 14.2331C23.9199 15.0798 23.0533 14.4464 23.4266 12.8331L23.8999 10.7864C23.9866 10.3998 23.8333 9.85977 23.5533 9.57977L21.8999 7.92643C20.9266 6.9531 21.2399 5.96643 22.5999 5.73977L24.7266 5.38643C25.0799 5.32643 25.5066 5.0131 25.6666 4.68643L26.8399 2.33977C27.4799 1.06643 28.5199 1.06643 29.1533 2.33977Z" fill="#F2BC1B" stroke="#F2BC1B" stroke-width="1.5" stroke-linecap="round" stroke-linejoin="round"/>
<path d="M49.1533 2.33977L50.3266 4.68643C50.4866 5.0131 50.9133 5.32643 51.2733 5.38643L53.3999 5.73977C54.7599 5.96643 55.0799 6.9531 54.0999 7.92643L52.4466 9.57977C52.1666 9.85977 52.0133 10.3998 52.0999 10.7864L52.5733 12.8331C52.9466 14.4531 52.0866 15.0798 50.6533 14.2331L48.6599 13.0531C48.2999 12.8398 47.7066 12.8398 47.3399 13.0531L45.3466 14.2331C43.9199 15.0798 43.0533 14.4464 43.4266 12.8331L43.8999 10.7864C43.9866 10.3998 43.8333 9.85977 43.5533 9.57977L41.8999 7.92643C40.9266 6.9531 41.2399 5.96643 42.5999 5.73977L44.7266 5.38643C45.0799 5.32643 45.5066 5.0131 45.6666 4.68643L46.8399 2.33977C47.4799 1.06643 48.5199 1.06643 49.1533 2.33977Z" fill="#F2BC1B" stroke="#F2BC1B" stroke-width="1.5" stroke-linecap="round" stroke-linejoin="round"/>
<path d="M69.1533 2.33977L70.3266 4.68643C70.4866 5.0131 70.9133 5.32643 71.2733 5.38643L73.3999 5.73977C74.7599 5.96643 75.0799 6.9531 74.0999 7.92643L72.4466 9.57977C72.1666 9.85977 72.0133 10.3998 72.0999 10.7864L72.5733 12.8331C72.9466 14.4531 72.0866 15.0798 70.6533 14.2331L68.6599 13.0531C68.2999 12.8398 67.7066 12.8398 67.3399 13.0531L65.3466 14.2331C63.9199 15.0798 63.0533 14.4464 63.4266 12.8331L63.8999 10.7864C63.9866 10.3998 63.8333 9.85977 63.5533 9.57977L61.8999 7.92643C60.9266 6.9531 61.2399 5.96643 62.5999 5.73977L64.7266 5.38643C65.0799 5.32643 65.5066 5.0131 65.6666 4.68643L66.8399 2.33977C67.4799 1.06643 68.5199 1.06643 69.1533 2.33977Z" fill="#F2BC1B" stroke="#F2BC1B" stroke-width="1.5" stroke-linecap="round" stroke-linejoin="round"/>
<path d="M89.1533 2.33977L90.3266 4.68643C90.4866 5.0131 90.9133 5.32643 91.2733 5.38643L93.3999 5.73977C94.7599 5.96643 95.0799 6.9531 94.0999 7.92643L92.4466 9.57977C92.1666 9.85977 92.0133 10.3998 92.0999 10.7864L92.5733 12.8331C92.9466 14.4531 92.0866 15.0798 90.6533 14.2331L88.6599 13.0531C88.2999 12.8398 87.7066 12.8398 87.3399 13.0531L85.3466 14.2331C83.9199 15.0798 83.0533 14.4464 83.4266 12.8331L83.8999 10.7864C83.9866 10.3998 83.8333 9.85977 83.5533 9.57977L81.8999 7.92643C80.9266 6.9531 81.2399 5.96643 82.5999 5.73977L84.7266 5.38643C85.0799 5.32643 85.5066 5.0131 85.6666 4.68643L86.8399 2.33977C87.4799 1.06643 88.5199 1.06643 89.1533 2.33977Z" fill="#F4F4F4" stroke="#F4F4F4" stroke-width="1.5" stroke-linecap="round" stroke-linejoin="round"/>
</svg>
