<svg width="106" height="18" viewBox="0 0 106 18" fill="none" xmlns="http://www.w3.org/2000/svg">
<path d="M10.2977 2.63297L11.6177 5.27297C11.7977 5.64047 12.2777 5.99297 12.6827 6.06047L15.0752 6.45797C16.6052 6.71297 16.9652 7.82297 15.8627 8.91797L14.0027 10.778C13.6877 11.093 13.5152 11.7005 13.6127 12.1355L14.1452 14.438C14.5652 16.2605 13.5977 16.9655 11.9852 16.013L9.74268 14.6855C9.33768 14.4455 8.67018 14.4455 8.25768 14.6855L6.01518 16.013C4.41018 16.9655 3.43518 16.253 3.85518 14.438L4.38768 12.1355C4.48518 11.7005 4.31268 11.093 3.99768 10.778L2.13768 8.91797C1.04268 7.82297 1.39518 6.71297 2.92518 6.45797L5.31768 6.06047C5.71518 5.99297 6.19518 5.64047 6.37518 5.27297L7.69518 2.63297C8.41518 1.20047 9.58518 1.20047 10.2977 2.63297Z" fill="#F2BC1B" stroke="#F2BC1B" stroke-width="1.5" stroke-linecap="round" stroke-linejoin="round"/>
<path d="M32.2977 2.63297L33.6177 5.27297C33.7977 5.64047 34.2777 5.99297 34.6827 6.06047L37.0752 6.45797C38.6052 6.71297 38.9652 7.82297 37.8627 8.91797L36.0027 10.778C35.6877 11.093 35.5152 11.7005 35.6127 12.1355L36.1452 14.438C36.5652 16.2605 35.5977 16.9655 33.9852 16.013L31.7427 14.6855C31.3377 14.4455 30.6702 14.4455 30.2577 14.6855L28.0152 16.013C26.4102 16.9655 25.4352 16.253 25.8552 14.438L26.3877 12.1355C26.4852 11.7005 26.3127 11.093 25.9977 10.778L24.1377 8.91797C23.0427 7.82297 23.3952 6.71297 24.9252 6.45797L27.3177 6.06047C27.7152 5.99297 28.1952 5.64047 28.3752 5.27297L29.6952 2.63297C30.4152 1.20047 31.5852 1.20047 32.2977 2.63297Z" fill="#F2BC1B" stroke="#F2BC1B" stroke-width="1.5" stroke-linecap="round" stroke-linejoin="round"/>
<path d="M54.2977 2.63297L55.6177 5.27297C55.7977 5.64047 56.2777 5.99297 56.6827 6.06047L59.0752 6.45797C60.6052 6.71297 60.9652 7.82297 59.8627 8.91797L58.0027 10.778C57.6877 11.093 57.5152 11.7005 57.6127 12.1355L58.1452 14.438C58.5652 16.2605 57.5977 16.9655 55.9852 16.013L53.7427 14.6855C53.3377 14.4455 52.6702 14.4455 52.2577 14.6855L50.0152 16.013C48.4102 16.9655 47.4352 16.253 47.8552 14.438L48.3877 12.1355C48.4852 11.7005 48.3127 11.093 47.9977 10.778L46.1377 8.91797C45.0427 7.82297 45.3952 6.71297 46.9252 6.45797L49.3177 6.06047C49.7152 5.99297 50.1952 5.64047 50.3752 5.27297L51.6952 2.63297C52.4152 1.20047 53.5852 1.20047 54.2977 2.63297Z" fill="#F2BC1B" stroke="#F2BC1B" stroke-width="1.5" stroke-linecap="round" stroke-linejoin="round"/>
<path d="M76.2977 2.63297L77.6177 5.27297C77.7977 5.64047 78.2777 5.99297 78.6827 6.06047L81.0752 6.45797C82.6052 6.71297 82.9652 7.82297 81.8627 8.91797L80.0027 10.778C79.6877 11.093 79.5152 11.7005 79.6127 12.1355L80.1452 14.438C80.5652 16.2605 79.5977 16.9655 77.9852 16.013L75.7427 14.6855C75.3377 14.4455 74.6702 14.4455 74.2577 14.6855L72.0152 16.013C70.4102 16.9655 69.4352 16.253 69.8552 14.438L70.3877 12.1355C70.4852 11.7005 70.3127 11.093 69.9977 10.778L68.1377 8.91797C67.0427 7.82297 67.3952 6.71297 68.9252 6.45797L71.3177 6.06047C71.7152 5.99297 72.1952 5.64047 72.3752 5.27297L73.6952 2.63297C74.4152 1.20047 75.5852 1.20047 76.2977 2.63297Z" fill="#F2BC1B" stroke="#F2BC1B" stroke-width="1.5" stroke-linecap="round" stroke-linejoin="round"/>
<path d="M98.2977 2.63297L99.6177 5.27297C99.7977 5.64047 100.278 5.99297 100.683 6.06047L103.075 6.45797C104.605 6.71297 104.965 7.82297 103.863 8.91797L102.003 10.778C101.688 11.093 101.515 11.7005 101.613 12.1355L102.145 14.438C102.565 16.2605 101.598 16.9655 99.9852 16.013L97.7427 14.6855C97.3377 14.4455 96.6702 14.4455 96.2577 14.6855L94.0152 16.013C92.4102 16.9655 91.4352 16.253 91.8552 14.438L92.3877 12.1355C92.4852 11.7005 92.3127 11.093 91.9977 10.778L90.1377 8.91797C89.0427 7.82297 89.3952 6.71297 90.9252 6.45797L93.3177 6.06047C93.7152 5.99297 94.1952 5.64047 94.3752 5.27297L95.6952 2.63297C96.4152 1.20047 97.5852 1.20047 98.2977 2.63297Z" fill="#F2BC1B" stroke="#F2BC1B" stroke-width="1.5" stroke-linecap="round" stroke-linejoin="round"/>
</svg>
