<svg width="56" height="32" viewBox="0 0 56 32" fill="none" xmlns="http://www.w3.org/2000/svg">
<rect width="56" height="32" rx="6" fill="white"/>
<path d="M37.7009 18.4183C36.3647 23.7783 30.9343 27.0365 25.5819 25.7004C20.2217 24.3643 16.9634 18.934 18.2996 13.5817C19.6357 8.22169 25.0584 4.96347 30.4186 6.29958C35.7709 7.62787 39.037 13.0582 37.7009 18.4183Z" fill="url(#paint0_linear_118_3666)"/>
<path d="M32.7612 14.754C32.9565 13.4259 31.9487 12.7072 30.5581 12.2306L31.0112 10.4259L29.9175 10.1525L29.48 11.9103C29.1909 11.84 28.894 11.7697 28.5972 11.7072L29.0347 9.94153L27.9409 9.66809L27.4956 11.465C27.2534 11.4103 27.019 11.3556 26.7925 11.3009V11.2931L25.2769 10.9181L24.9878 12.09C24.9878 12.09 25.8003 12.2775 25.7847 12.2853C26.23 12.3947 26.3081 12.6915 26.2925 12.9259L25.7769 14.9806C25.8081 14.9884 25.8472 14.9962 25.894 15.0197C25.855 15.0118 25.8159 15.004 25.7769 14.9884L25.0581 17.8634C25.0034 17.9962 24.8628 18.1993 24.5581 18.1212C24.5659 18.1368 23.7612 17.9259 23.7612 17.9259L23.2144 19.1837L24.644 19.5431C24.9097 19.6134 25.1675 19.6759 25.4253 19.7462L24.9722 21.5665L26.0659 21.84L26.519 20.0353C26.8159 20.1134 27.1128 20.1915 27.394 20.2618L26.9487 22.0587L28.0425 22.3322L28.4956 20.5118C30.3706 20.8634 31.7769 20.7228 32.3628 19.0275C32.8394 17.6681 32.3394 16.879 31.355 16.3634C32.0815 16.1993 32.6206 15.7228 32.7612 14.754ZM30.2534 18.2697C29.9175 19.629 27.6206 18.8947 26.8784 18.7072L27.48 16.2931C28.2222 16.4806 30.6128 16.8478 30.2534 18.2697ZM30.5972 14.7306C30.2847 15.9728 28.3784 15.34 27.7612 15.1837L28.3081 12.9962C28.9253 13.1525 30.9175 13.4415 30.5972 14.7306Z" fill="white"/>
<defs>
<linearGradient id="paint0_linear_118_3666" x1="27.9947" y1="5.99529" x2="27.9947" y2="25.998" gradientUnits="userSpaceOnUse">
<stop stop-color="#F9AA4B"/>
<stop offset="1" stop-color="#F7931A"/>
</linearGradient>
</defs>
</svg>
