<svg width="56" height="56" viewBox="0 0 56 56" fill="none" xmlns="http://www.w3.org/2000/svg">
<path d="M43.6798 34.44C44.4965 32.4566 44.9398 30.3333 44.9398 28C44.9398 26.32 44.6832 24.71 44.2398 23.2166C42.7232 23.5666 41.1365 23.7533 39.4798 23.7533C36.0871 23.7569 32.7432 22.9448 29.7301 21.3855C26.7169 19.8261 24.1228 17.5652 22.1665 14.7933C20.0737 19.857 16.1258 23.9302 11.1298 26.18C11.0365 26.7633 11.0365 27.3933 11.0365 28C11.0365 30.2276 11.4753 32.4335 12.3278 34.4915C13.1802 36.5496 14.4298 38.4197 16.0049 39.9948C19.1862 43.1761 23.5009 44.9633 27.9998 44.9633C30.4498 44.9633 32.8065 44.4266 34.9298 43.47C36.2598 46.0133 36.8665 47.2733 36.8198 47.2733C32.9932 48.5566 30.0298 49.1866 27.9998 49.1866C22.3532 49.1866 16.9632 46.97 12.9965 42.98C10.5838 40.5747 8.79037 37.6203 7.76984 34.37H4.6665V23.7533H7.20984C7.9804 20.0025 9.75199 16.5302 12.3366 13.705C14.9212 10.8798 18.2225 8.80691 21.8901 7.70639C25.5577 6.60588 29.4548 6.51876 33.1679 7.45427C36.881 8.38979 40.2715 10.313 42.9798 13.02C45.9204 15.9489 47.9261 19.6842 48.7432 23.7533H51.3332V34.37H51.1932L42.8865 42L30.5198 40.6V36.7033H41.7898L43.6798 34.44ZM21.6298 27.4633C22.3298 27.4633 23.0065 27.7433 23.4965 28.2566C23.9889 28.7531 24.2653 29.424 24.2653 30.1233C24.2653 30.8226 23.9889 31.4935 23.4965 31.99C23.0065 32.48 22.3298 32.76 21.6298 32.76C20.1598 32.76 18.9698 31.5933 18.9698 30.1233C18.9698 28.6533 20.1598 27.4633 21.6298 27.4633ZM34.3465 27.4633C35.8165 27.4633 36.9832 28.6533 36.9832 30.1233C36.9832 31.5933 35.8165 32.76 34.3465 32.76C32.8765 32.76 31.6865 31.5933 31.6865 30.1233C31.6865 29.4178 31.9668 28.7412 32.4656 28.2424C32.9644 27.7435 33.641 27.4633 34.3465 27.4633Z" fill="#05422C"/>
</svg>
