<svg width="56" height="56" viewBox="0 0 56 56" fill="none" xmlns="http://www.w3.org/2000/svg">
<path d="M11.1998 2.80005C12.219 2.80005 13.1766 3.07165 13.9998 3.55045C14.8511 3.05895 15.8168 2.8002 16.7998 2.80019C17.7828 2.80018 18.7484 3.05893 19.5997 3.55041C20.451 4.0419 21.158 4.74881 21.6495 5.6001C22.141 6.45139 22.3998 7.41706 22.3998 8.40005V11.2H23.7998C24.1711 11.2 24.5272 11.3475 24.7898 11.6101C25.0523 11.8727 25.1998 12.2287 25.1998 12.6V25.2C25.1998 26.6853 24.6098 28.1096 23.5596 29.1598C22.5094 30.21 21.085 30.8 19.5998 30.8H8.3998C6.91459 30.8 5.49021 30.21 4.44001 29.1598C3.3898 28.1096 2.7998 26.6853 2.7998 25.2V12.6C2.7998 12.2287 2.9473 11.8727 3.20986 11.6101C3.47241 11.3475 3.8285 11.2 4.1998 11.2H5.5998V8.40005C5.5998 6.91484 6.1898 5.49045 7.24001 4.44025C8.29021 3.39005 9.71459 2.80005 11.1998 2.80005ZM8.3998 11.2H13.9998V8.40005C13.9998 7.65744 13.7048 6.94525 13.1797 6.42015C12.6546 5.89505 11.9424 5.60005 11.1998 5.60005C10.4572 5.60005 9.74501 5.89505 9.21991 6.42015C8.6948 6.94525 8.3998 7.65744 8.3998 8.40005V11.2ZM16.7998 8.40005V11.2H19.5998V8.40005C19.6001 7.97254 19.5026 7.55064 19.3146 7.16668C19.1266 6.78272 18.8532 6.44691 18.5153 6.18499C18.1774 5.92307 17.784 5.74199 17.3653 5.65564C16.9466 5.5693 16.5137 5.57997 16.0998 5.68685C16.5478 6.49045 16.7998 7.41725 16.7998 8.40005ZM25.1998 8.63805V8.40005H34.2998C37.0074 8.40005 39.1998 10.5952 39.1998 13.3V16.8H41.6694C42.4498 16.8001 43.2148 17.0175 43.8785 17.428C44.5422 17.8385 45.0784 18.4258 45.427 19.124L49.9574 28.182C50.2493 28.7644 50.4017 29.4067 50.4026 30.058V40.6C50.4026 41.714 49.9601 42.7822 49.1725 43.5699C48.3848 44.3576 47.3165 44.8 46.2026 44.8H41.8626C41.5413 46.3825 40.6828 47.8051 39.4326 48.827C38.1823 49.8488 36.6173 50.4071 35.0026 50.4071C33.3879 50.4071 31.8229 49.8488 30.5726 48.827C29.3224 47.8051 28.4639 46.3825 28.1426 44.8H25.0626C24.7413 46.3825 23.8828 47.8051 22.6326 48.827C21.3823 49.8488 19.8173 50.4071 18.2026 50.4071C16.5879 50.4071 15.0229 49.8488 13.7726 48.827C12.5224 47.8051 11.6639 46.3825 11.3426 44.8H10.6174C9.31784 44.8 8.07151 44.2838 7.15258 43.3649C6.23365 42.4459 5.7174 41.1996 5.7174 39.9V33.1632C6.5602 33.446 7.4618 33.6 8.3998 33.6H8.5174V39.9C8.5174 41.0592 9.4582 42 10.6174 42H11.3426C11.6639 40.4176 12.5224 38.995 13.7726 37.9731C15.0229 36.9513 16.5879 36.393 18.2026 36.393C19.8173 36.393 21.3823 36.9513 22.6326 37.9731C23.8828 38.995 24.7413 40.4176 25.0626 42H28.1426C28.5136 40.1811 29.5919 38.584 31.1405 37.56C32.689 36.5361 34.5808 36.1692 36.3998 36.5401V13.3C36.3998 12.7431 36.1786 12.209 35.7847 11.8151C35.3909 11.4213 34.8568 11.2 34.2998 11.2H27.7618C27.5524 10.6093 27.2137 10.0727 26.7704 9.62943C26.3272 9.1862 25.7906 8.8475 25.1998 8.63805ZM39.1998 37.8C40.5438 38.808 41.5154 40.292 41.8598 42H46.1998C46.5711 42 46.9272 41.8526 47.1898 41.59C47.4523 41.3274 47.5998 40.9714 47.5998 40.6V30.8H39.1998V37.8ZM39.1998 28H46.7374L42.9238 20.3728C42.8074 20.1406 42.6287 19.9453 42.4077 19.8088C42.1866 19.6723 41.932 19.6001 41.6722 19.6H39.1998V28ZM18.1998 39.2C17.0859 39.2 16.0176 39.6425 15.23 40.4302C14.4423 41.2179 13.9998 42.2861 13.9998 43.4C13.9998 44.514 14.4423 45.5822 15.23 46.3699C16.0176 47.1575 17.0859 47.6 18.1998 47.6C19.3137 47.6 20.382 47.1575 21.1697 46.3699C21.9573 45.5822 22.3998 44.514 22.3998 43.4C22.3998 42.2861 21.9573 41.2179 21.1697 40.4302C20.382 39.6425 19.3137 39.2 18.1998 39.2ZM30.7998 43.4C30.7998 43.9516 30.9084 44.4978 31.1195 45.0073C31.3306 45.5169 31.6399 45.9799 32.03 46.3699C32.42 46.7599 32.883 47.0693 33.3925 47.2803C33.9021 47.4914 34.4483 47.6 34.9998 47.6C35.5514 47.6 36.0975 47.4914 36.6071 47.2803C37.1166 47.0693 37.5796 46.7599 37.9697 46.3699C38.3597 45.9799 38.669 45.5169 38.8801 45.0073C39.0912 44.4978 39.1998 43.9516 39.1998 43.4C39.1998 42.2861 38.7573 41.2179 37.9697 40.4302C37.182 39.6425 36.1137 39.2 34.9998 39.2C33.8859 39.2 32.8176 39.6425 32.03 40.4302C31.2423 41.2179 30.7998 42.2861 30.7998 43.4Z" fill="#05422C"/>
</svg>
