<svg width="101" height="32" viewBox="0 0 101 32" fill="none" xmlns="http://www.w3.org/2000/svg">
<g clip-path="url(#clip0_118_3397)">
<path d="M12.634 11.4182V14.8364H20.792C20.5754 16.7273 19.9257 18.1818 18.9149 19.1273C17.7598 20.2909 15.8828 21.6 12.634 21.6C7.65261 21.6 3.75411 17.5273 3.75411 12.5091C3.75411 7.49091 7.58042 3.41818 12.634 3.41818C15.3052 3.41818 17.3267 4.50909 18.7706 5.89091L21.153 3.49091C19.1315 1.52727 16.3881 0 12.634 0C5.77555 0 0 5.6 0 12.5091C0 19.4182 5.77555 25.0182 12.634 25.0182C16.3159 25.0182 19.1315 23.7818 21.2974 21.5273C23.5354 19.2727 24.2573 16.0727 24.2573 13.5273C24.2573 12.7273 24.1851 12 24.1129 11.4182H12.634Z" fill="white" fill-opacity="0.5"/>
<path d="M34.3646 8.58203C29.9607 8.58203 26.2788 12.0002 26.2788 16.6548C26.2788 21.3093 29.8885 24.7275 34.3646 24.7275C38.8406 24.7275 42.4504 21.382 42.4504 16.7275C42.4504 12.0002 38.8406 8.58203 34.3646 8.58203ZM34.3646 21.6002C31.91 21.6002 29.8163 19.5638 29.8163 16.7275C29.8163 13.8184 31.91 11.8548 34.3646 11.8548C36.8192 11.8548 38.9128 13.8184 38.9128 16.7275C38.9128 19.5638 36.8192 21.6002 34.3646 21.6002Z" fill="white" fill-opacity="0.5"/>
<path d="M73.855 10.4002H73.7106C72.9164 9.45476 71.4003 8.58203 69.4511 8.58203C65.4082 8.58203 61.9429 12.0729 61.9429 16.6548C61.9429 21.1638 65.4082 24.7275 69.4511 24.7275C71.4003 24.7275 72.9164 23.8548 73.7106 22.9093H73.855V24.0729C73.855 27.1275 72.1945 28.8002 69.5955 28.8002C67.4296 28.8002 66.1301 27.2729 65.5526 25.8911L62.5204 27.2002C63.3868 29.3093 65.7692 32.0002 69.6677 32.0002C73.7828 32.0002 77.3203 29.5275 77.3203 23.5639V9.01839H73.9993V10.4002H73.855ZM69.8121 21.6002C67.3574 21.6002 65.5526 19.4911 65.5526 16.7275C65.5526 13.8911 67.4296 11.8548 69.8121 11.8548C72.1945 11.8548 74.0715 13.9638 74.0715 16.8002C74.1437 19.5638 72.2667 21.6002 69.8121 21.6002Z" fill="white" fill-opacity="0.5"/>
<path d="M52.3411 8.58203C47.9373 8.58203 44.2554 12.0002 44.2554 16.6548C44.2554 21.3093 47.8651 24.7275 52.3411 24.7275C56.8172 24.7275 60.4269 21.382 60.4269 16.7275C60.4269 12.0002 56.8172 8.58203 52.3411 8.58203ZM52.3411 21.6002C49.8865 21.6002 47.7929 19.5638 47.7929 16.7275C47.7929 13.8184 49.8865 11.8548 52.3411 11.8548C54.7958 11.8548 56.8894 13.8184 56.8894 16.7275C56.8894 19.5638 54.7958 21.6002 52.3411 21.6002Z" fill="white" fill-opacity="0.5"/>
<path d="M79.9912 0.363281H83.4565V24.7996H79.9912V0.363281Z" fill="white" fill-opacity="0.5"/>
<path d="M94.1416 21.6002C92.3367 21.6002 91.1094 20.8002 90.2431 19.1275L101 14.6911L100.639 13.7457C99.9893 11.9275 97.8957 8.58203 93.7806 8.58203C89.6655 8.58203 86.2002 11.8548 86.2002 16.6548C86.2002 21.1638 89.5933 24.7275 94.1416 24.7275C97.8235 24.7275 99.9171 22.4729 100.856 21.1638L98.1123 19.3457C97.1737 20.7275 95.9464 21.6002 94.1416 21.6002ZM93.925 11.6366C95.3689 11.6366 96.5962 12.3638 96.9572 13.382L89.7377 16.4366C89.6655 13.0911 92.1201 11.6366 93.925 11.6366Z" fill="white" fill-opacity="0.5"/>
</g>
<defs>
<clipPath id="clip0_118_3397">
<rect width="101" height="32" fill="white"/>
</clipPath>
</defs>
</svg>
