<svg width="56" height="56" viewBox="0 0 56 56" fill="none" xmlns="http://www.w3.org/2000/svg">
<path d="M48.2815 8.76165C47.9602 8.26827 47.521 7.86271 47.0036 7.58162C46.4862 7.30052 45.907 7.15275 45.3182 7.15165H35.0282C34.3599 7.14849 33.705 7.33837 33.142 7.69849C32.5791 8.0586 32.1321 8.57362 31.8548 9.18165L28.0002 17.465L24.1268 9.18165C23.8496 8.57362 23.4026 8.0586 22.8397 7.69849C22.2767 7.33837 21.6218 7.14849 20.9535 7.15165H10.6682C10.0797 7.15424 9.50129 7.3052 8.98658 7.59055C8.47186 7.8759 8.0374 8.28644 7.7234 8.7842C7.40939 9.28196 7.22597 9.85086 7.1901 10.4383C7.15423 11.0257 7.26707 11.6127 7.51818 12.145L16.2215 30.8583C15.5198 32.4873 15.1547 34.2413 15.1482 36.015C15.1482 39.4186 16.5003 42.6828 18.907 45.0895C21.3137 47.4962 24.5779 48.8483 27.9815 48.8483C31.3851 48.8483 34.6493 47.4962 37.056 45.0895C39.4628 42.6828 40.8148 39.4186 40.8148 36.015C40.8197 34.2477 40.4541 32.4989 39.7415 30.8816L48.4915 12.145C48.7407 11.6081 48.852 11.0175 48.8153 10.4267C48.7786 9.83593 48.5952 9.26363 48.2815 8.76165ZM9.61818 11.165C9.53619 10.983 9.49972 10.7839 9.51192 10.5847C9.52411 10.3855 9.58461 10.1922 9.68818 10.0217C9.79263 9.85645 9.93737 9.72052 10.1088 9.62664C10.2802 9.53276 10.4727 9.48401 10.6682 9.48498H20.9582C21.1829 9.48419 21.4032 9.54741 21.5932 9.66725C21.7833 9.78708 21.9353 9.95857 22.0315 10.1617L28.1215 23.1817H27.9815C25.9676 23.1852 23.9828 23.6622 22.1872 24.5741C20.3916 25.4861 18.8356 26.8075 17.6448 28.4317L9.61818 11.165ZM27.9815 46.515C25.9048 46.515 23.8747 45.8992 22.148 44.7454C20.4213 43.5917 19.0755 41.9518 18.2808 40.0332C17.4861 38.1145 17.2781 36.0033 17.6833 33.9665C18.0884 31.9297 19.0884 30.0588 20.5569 28.5904C22.0253 27.1219 23.8963 26.1219 25.9331 25.7167C27.9699 25.3116 30.0811 25.5195 31.9997 26.3142C33.9183 27.109 35.5582 28.4548 36.7119 30.1815C37.8657 31.9082 38.4815 33.9383 38.4815 36.015C38.4815 37.3939 38.2099 38.7592 37.6822 40.0332C37.1546 41.3071 36.3811 42.4646 35.4061 43.4396C34.4311 44.4146 33.2736 45.188 31.9997 45.7157C30.7258 46.2434 29.3604 46.515 27.9815 46.515ZM46.3915 11.165L38.3182 28.4317C36.5012 25.9365 33.8393 24.1868 30.8282 23.5083L29.2882 20.195L33.9548 10.1617C34.051 9.95857 34.203 9.78708 34.3931 9.66725C34.5832 9.54741 34.8035 9.48419 35.0282 9.48498H45.3182C45.5141 9.4813 45.7076 9.52888 45.8795 9.62301C46.0514 9.71714 46.1957 9.85456 46.2982 10.0217C46.4098 10.1885 46.477 10.3811 46.4934 10.5812C46.5097 10.7813 46.4746 10.9822 46.3915 11.165Z" fill="#05422C"/>
<path d="M28.1795 39.3867L30.5689 40.6421C30.6361 40.6778 30.7119 40.6939 30.7879 40.6886C30.8638 40.6832 30.9367 40.6567 30.9982 40.6119C31.0598 40.5672 31.1075 40.506 31.1359 40.4354C31.1644 40.3648 31.1725 40.2877 31.1592 40.2127L30.6925 37.5527C30.6817 37.4877 30.6868 37.421 30.7076 37.3584C30.7283 37.2957 30.764 37.2391 30.8115 37.1934L32.7435 35.3104C32.7993 35.2569 32.8387 35.1887 32.8572 35.1137C32.8758 35.0387 32.8726 34.9599 32.8482 34.8866C32.8238 34.8133 32.779 34.7484 32.7192 34.6996C32.6594 34.6507 32.5869 34.6197 32.5102 34.6104L29.8665 34.2277C29.8 34.2169 29.7372 34.19 29.6835 34.1493C29.6299 34.1086 29.5869 34.0555 29.5585 33.9944L28.3639 31.5747C28.3306 31.5062 28.2787 31.4485 28.2141 31.408C28.1495 31.3676 28.0749 31.3462 27.9987 31.3462C27.9225 31.3462 27.8479 31.3676 27.7833 31.408C27.7187 31.4485 27.6668 31.5062 27.6335 31.5747L26.4389 33.9944C26.4112 34.0555 26.3687 34.1088 26.3154 34.1496C26.2621 34.1903 26.1995 34.2171 26.1332 34.2277L23.4615 34.6151C23.3848 34.6244 23.3123 34.6553 23.2525 34.7042C23.1927 34.7531 23.1479 34.818 23.1235 34.8913C23.0991 34.9646 23.0959 35.0433 23.1145 35.1183C23.133 35.1934 23.1724 35.2616 23.2282 35.3151L25.1602 37.1981C25.2073 37.244 25.2425 37.3007 25.2629 37.3633C25.2832 37.4259 25.288 37.4925 25.2769 37.5574L24.8102 40.2174C24.7969 40.2923 24.805 40.3695 24.8334 40.4401C24.8619 40.5107 24.9096 40.5718 24.9712 40.6166C25.0327 40.6613 25.1056 40.6879 25.1815 40.6932C25.2574 40.6986 25.3333 40.6825 25.4005 40.6467L27.7899 39.3914C27.8491 39.3576 27.9159 39.3394 27.9841 39.3386C28.0523 39.3378 28.1195 39.3544 28.1795 39.3867Z" fill="#05422C"/>
</svg>
