<svg width="48" height="48" viewBox="0 0 48 48" fill="none" xmlns="http://www.w3.org/2000/svg">
<rect width="48" height="48" rx="24" fill="#F2F6F4"/>
<path d="M26.7497 14.833V23.9997C26.7497 25.008 25.9247 25.833 24.9163 25.833H14.833V19.9847C15.5022 20.7822 16.5289 21.2772 17.6655 21.2497C18.5914 21.2313 19.4255 20.8738 20.0488 20.278C20.333 20.0397 20.5714 19.7372 20.7547 19.4072C21.0847 18.848 21.268 18.188 21.2497 17.5005C21.2222 16.428 20.7455 15.4838 20.003 14.833H26.7497Z" stroke="#05422C" stroke-width="1.5" stroke-linecap="round" stroke-linejoin="round"/>
<path d="M33.1663 25.833V28.583C33.1663 30.1047 31.938 31.333 30.4163 31.333H29.4997C29.4997 30.3247 28.6747 29.4997 27.6663 29.4997C26.658 29.4997 25.833 30.3247 25.833 31.333H22.1663C22.1663 30.3247 21.3413 29.4997 20.333 29.4997C19.3247 29.4997 18.4997 30.3247 18.4997 31.333H17.583C16.0613 31.333 14.833 30.1047 14.833 28.583V25.833H24.9163C25.9247 25.833 26.7497 25.008 26.7497 23.9997V17.583H28.4364C29.0964 17.583 29.7014 17.9405 30.0314 18.5089L31.5988 21.2497H30.4163C29.9122 21.2497 29.4997 21.6622 29.4997 22.1663V24.9163C29.4997 25.4205 29.9122 25.833 30.4163 25.833H33.1663Z" stroke="#05422C" stroke-width="1.5" stroke-linecap="round" stroke-linejoin="round"/>
<path d="M20.3333 33.1667C21.3459 33.1667 22.1667 32.3459 22.1667 31.3333C22.1667 30.3208 21.3459 29.5 20.3333 29.5C19.3208 29.5 18.5 30.3208 18.5 31.3333C18.5 32.3459 19.3208 33.1667 20.3333 33.1667Z" stroke="#05422C" stroke-width="1.5" stroke-linecap="round" stroke-linejoin="round"/>
<path d="M27.6663 33.1667C28.6789 33.1667 29.4997 32.3459 29.4997 31.3333C29.4997 30.3208 28.6789 29.5 27.6663 29.5C26.6538 29.5 25.833 30.3208 25.833 31.3333C25.833 32.3459 26.6538 33.1667 27.6663 33.1667Z" stroke="#05422C" stroke-width="1.5" stroke-linecap="round" stroke-linejoin="round"/>
<path d="M33.1667 24V25.8333H30.4167C29.9125 25.8333 29.5 25.4208 29.5 24.9167V22.1667C29.5 21.6625 29.9125 21.25 30.4167 21.25H31.5991L33.1667 24Z" stroke="#05422C" stroke-width="1.5" stroke-linecap="round" stroke-linejoin="round"/>
<path d="M21.2503 17.5837C21.2503 18.6837 20.7645 19.6645 20.0037 20.3337C19.3528 20.902 18.5095 21.2503 17.5837 21.2503C15.5578 21.2503 13.917 19.6095 13.917 17.5837C13.917 16.4287 14.4487 15.3928 15.292 14.7237C15.9245 14.2195 16.722 13.917 17.5837 13.917C19.6095 13.917 21.2503 15.5578 21.2503 17.5837Z" stroke="#05422C" stroke-width="1.5" stroke-miterlimit="10" stroke-linecap="round" stroke-linejoin="round"/>
<path d="M17.8128 16.4375V17.8125L16.667 18.5" stroke="#05422C" stroke-width="1.5" stroke-miterlimit="10" stroke-linecap="round" stroke-linejoin="round"/>
</svg>
