<svg width="48" height="48" viewBox="0 0 48 48" fill="none" xmlns="http://www.w3.org/2000/svg">
<rect width="48" height="48" rx="24" fill="#F2F6F4"/>
<path d="M15.9053 19.8193L23.9994 24.5035L32.0386 19.8468" stroke="#05422C" stroke-width="1.5" stroke-linecap="round" stroke-linejoin="round"/>
<path d="M23.999 32.8083V24.4941" stroke="#05422C" stroke-width="1.5" stroke-linecap="round" stroke-linejoin="round"/>
<path d="M32.8087 21.4055V26.5939C32.8087 26.6397 32.8088 26.6763 32.7996 26.7222C32.1579 26.163 31.3329 25.833 30.4162 25.833C29.5546 25.833 28.7571 26.1355 28.1246 26.6397C27.2812 27.3089 26.7496 28.3447 26.7496 29.4997C26.7496 30.1872 26.9421 30.838 27.2812 31.388C27.3637 31.5347 27.4646 31.6722 27.5746 31.8005L25.8971 32.7264C24.8521 33.313 23.1471 33.313 22.1021 32.7264L17.2071 30.013C16.0979 29.3989 15.1904 27.8589 15.1904 26.5939V21.4055C15.1904 20.1405 16.0979 18.6005 17.2071 17.9864L22.1021 15.273C23.1471 14.6863 24.8521 14.6863 25.8971 15.273L30.7921 17.9864C31.9013 18.6005 32.8087 20.1405 32.8087 21.4055Z" stroke="#05422C" stroke-width="1.5" stroke-linecap="round" stroke-linejoin="round"/>
<path d="M34.0833 29.4997C34.0833 30.5997 33.5975 31.5805 32.8367 32.2497C32.1858 32.818 31.3425 33.1663 30.4167 33.1663C28.3908 33.1663 26.75 31.5255 26.75 29.4997C26.75 28.3447 27.2817 27.3088 28.125 26.6397C28.7575 26.1355 29.555 25.833 30.4167 25.833C32.4425 25.833 34.0833 27.4738 34.0833 29.4997Z" stroke="#05422C" stroke-width="1.5" stroke-miterlimit="10" stroke-linecap="round" stroke-linejoin="round"/>
<path d="M30.6458 28.3535V29.7285L29.5 30.416" stroke="#05422C" stroke-width="1.5" stroke-miterlimit="10" stroke-linecap="round" stroke-linejoin="round"/>
</svg>
