<svg width="56" height="32" viewBox="0 0 56 32" fill="none" xmlns="http://www.w3.org/2000/svg">
<rect width="56" height="32" rx="6" fill="white"/>
<mask id="mask0_118_3670" style="mask-type:luminance" maskUnits="userSpaceOnUse" x="18" y="6" width="20" height="20">
<path d="M18 6H37.9997V26H18V6Z" fill="white"/>
</mask>
<g mask="url(#mask0_118_3670)">
<path d="M19.9507 6.34085H36.0491C36.2606 6.34084 36.4699 6.38246 36.6653 6.46336C36.8606 6.54426 37.0381 6.66283 37.1876 6.81233C37.3371 6.96182 37.4557 7.13929 37.5367 7.33462C37.6176 7.52995 37.6592 7.7393 37.6592 7.95073V24.0495C37.6592 24.2609 37.6176 24.4703 37.5367 24.6656C37.4557 24.8609 37.3371 25.0384 37.1876 25.1878C37.0381 25.3373 36.8607 25.4559 36.6653 25.5368C36.47 25.6177 36.2607 25.6593 36.0493 25.6593H19.9505C19.5236 25.6593 19.1142 25.4897 18.8123 25.1879C18.5105 24.886 18.3409 24.4766 18.3408 24.0497V7.95061C18.3409 7.52367 18.5105 7.11422 18.8124 6.81233C19.1143 6.51045 19.5238 6.34085 19.9507 6.34085Z" fill="#FDB913"/>
<path d="M36.0493 6.34073C36.4762 6.34085 36.8856 6.51052 37.1875 6.81244C37.4893 7.11436 37.6589 7.52379 37.6589 7.95072V24.0494C37.6589 24.4763 37.4893 24.8857 37.1875 25.1876C36.8856 25.4895 36.4762 25.6592 36.0493 25.6593H19.9506C19.7392 25.6593 19.5298 25.6177 19.3345 25.5368C19.1391 25.4559 18.9616 25.3373 18.8121 25.1878C18.6626 25.0383 18.5441 24.8609 18.4632 24.6655C18.3823 24.4702 18.3407 24.2608 18.3407 24.0494V7.95072C18.3407 7.73929 18.3823 7.52992 18.4632 7.33458C18.5441 7.13923 18.6626 6.96173 18.8121 6.81222C18.9616 6.66271 19.1391 6.54412 19.3345 6.46322C19.5298 6.38232 19.7392 6.3407 19.9506 6.34073H36.0493ZM36.0493 6H19.9506C19.4334 6.00055 18.9376 6.20625 18.5719 6.57196C18.2062 6.93768 18.0005 7.43354 18 7.95072V24.0494C18.0006 24.5665 18.2063 25.0624 18.572 25.428C18.9376 25.7937 19.4335 25.9994 19.9506 26H36.0493C36.5664 25.9994 37.0622 25.7937 37.4278 25.428C37.7935 25.0623 37.9991 24.5665 37.9997 24.0494V7.95072C37.9992 7.43357 37.7935 6.93773 37.4279 6.57201C37.0622 6.2063 36.5664 6.00058 36.0493 6Z" fill="white"/>
<path d="M29.1271 16.2085L29.1255 12.7497L30.0283 12.5355V12.989C30.0283 12.989 30.2622 12.3927 30.8049 12.2543C30.886 12.2282 30.9722 12.2224 31.056 12.2374V13.12C30.8935 13.1221 30.7329 13.1555 30.583 13.2184C30.2494 13.3502 30.0815 13.6376 30.0815 14.0765L30.082 15.9864L29.1271 16.2085ZM24.3678 17.3333C24.3678 17.3333 24.2209 17.1132 24.2209 16.3349V14.6129L23.7565 14.7234V14.0138L24.2221 13.9039V13.1304L25.1821 12.9037V13.6771L25.8603 13.516V14.2247L25.1821 14.3857C25.1821 14.3857 25.1809 15.7967 25.1821 16.1392C25.1821 16.9367 25.3937 17.0898 25.3937 17.0898L24.3678 17.3333ZM25.9607 15.2756C25.9607 14.6607 26.0483 14.2121 26.2363 13.8679C26.46 13.4593 26.8267 13.1931 27.361 13.0714C28.4142 12.8319 28.7944 13.4553 28.7796 14.2912C28.774 14.5902 28.7754 14.7358 28.7754 14.7358L26.9199 15.1719V15.2017C26.9199 15.7859 27.0424 16.063 27.4125 15.9844C27.7322 15.917 27.8211 15.7168 27.8464 15.4691C27.8505 15.4292 27.8525 15.3276 27.8525 15.3276L28.7217 15.1193C28.7217 15.1193 28.7237 15.1905 28.7225 15.2704C28.7149 15.6023 28.6184 16.4256 27.4103 16.7112C26.2659 16.9828 25.9608 16.2839 25.9608 15.2755M27.3996 13.7157C27.0922 13.7855 26.9309 14.0871 26.9239 14.5867L27.8573 14.3644C27.8589 14.3418 27.8591 14.292 27.8589 14.214C27.8573 13.8368 27.7407 13.6376 27.3996 13.7157ZM34.3054 13.253C34.2694 12.1996 34.5426 11.3635 35.7179 11.0973C36.4669 10.9271 36.7514 11.122 36.8955 11.3103C37.034 11.49 37.0875 11.7324 37.0875 12.0718L37.0883 12.1342L36.1688 12.3527L36.1681 12.2247C36.1688 11.8221 36.0569 11.669 35.7645 11.7422C35.4167 11.8296 35.2763 12.1596 35.2763 12.8158C35.2763 13.0488 35.2774 13.0906 35.2774 13.122C35.2774 13.7889 35.3684 14.0942 35.7692 14.0103C36.1169 13.9384 36.1644 13.6332 36.17 13.3655C36.1707 13.3235 36.1725 13.189 36.1725 13.189L37.0906 12.9721C37.0906 12.9721 37.0915 13.04 37.0915 13.1154C37.0892 13.9899 36.6283 14.5409 35.7648 14.7419C34.5752 15.0208 34.3422 14.3333 34.3053 13.253M31.1268 14.7278C31.1268 13.9265 31.5962 13.6731 32.3027 13.3808C32.938 13.118 32.9518 12.9875 32.9544 12.7591C32.9579 12.5669 32.8688 12.4025 32.5525 12.4831C32.4471 12.5044 32.3519 12.5607 32.2824 12.6428C32.2129 12.7249 32.1732 12.8281 32.1697 12.9356C32.1645 12.9947 32.1625 13.0539 32.1637 13.1132L31.2729 13.3235C31.2669 13.146 31.2877 12.9686 31.3344 12.7972C31.4767 12.3181 31.8994 11.9957 32.6288 11.8269C33.5765 11.6085 33.8924 12.0244 33.8935 12.6714V14.2033C33.8935 14.9442 34.0311 15.0528 34.0311 15.0528L33.1566 15.2597C33.1084 15.1586 33.0692 15.0535 33.0395 14.9456C33.0395 14.9456 32.8478 15.428 32.1876 15.5832C31.4941 15.7467 31.1268 15.317 31.1268 14.7278ZM32.9483 13.6336C32.8009 13.737 32.6453 13.8281 32.4831 13.9061C32.1916 14.0485 32.0599 14.2242 32.0599 14.4948C32.0599 14.7291 32.205 14.883 32.4689 14.8179C32.7519 14.7465 32.9483 14.4824 32.9483 14.1155V13.6336ZM19.3484 19.7579C19.2486 19.7578 19.1506 19.7307 19.0649 19.6797C18.9792 19.6286 18.9088 19.5553 18.8612 19.4676C18.8136 19.3799 18.7905 19.2809 18.7944 19.1812C18.7983 19.0814 18.829 18.9846 18.8832 18.9009L18.8894 18.8928L18.8998 18.8901L20.2056 18.5818V19.5735L20.1853 19.5782C19.9448 19.6361 19.7037 19.6921 19.4622 19.7461C19.4248 19.754 19.3866 19.758 19.3484 19.7579ZM19.3484 21.0265C19.2014 21.0265 19.0605 20.9682 18.9566 20.8644C18.8526 20.7605 18.7941 20.6197 18.794 20.4727C18.7937 20.3657 18.8247 20.2609 18.8832 20.1713L18.8894 20.1621L18.8998 20.1593L20.2056 19.8512V20.8429L20.1853 20.8481C19.8891 20.9193 19.5351 21.0012 19.4622 21.0158C19.4247 21.0231 19.3866 21.0266 19.3484 21.0265ZM19.3484 22.2976C19.2014 22.2975 19.0604 22.2391 18.9565 22.1351C18.8525 22.0312 18.7941 21.8903 18.794 21.7433C18.7936 21.6362 18.8246 21.5315 18.8832 21.4419L18.8894 21.4319L20.2056 21.1217V22.1133L20.1853 22.1187C19.8725 22.1939 19.5251 22.2724 19.4622 22.2862C19.4247 22.2938 19.3866 22.2976 19.3484 22.2976ZM20.2055 12.7551V18.3036L19.1943 18.5428L19.1939 12.9942L20.2055 12.7551ZM21.714 18.0707C21.7151 17.988 21.6998 17.9059 21.6689 17.8292C21.638 17.7525 21.5922 17.6827 21.5342 17.6238C21.4761 17.565 21.4069 17.5182 21.3306 17.4863C21.2544 17.4544 21.1725 17.438 21.0898 17.438C21.0071 17.438 20.9253 17.4544 20.849 17.4863C20.7727 17.5182 20.7035 17.565 20.6455 17.6238C20.5874 17.6827 20.5416 17.7525 20.5108 17.8292C20.4799 17.9059 20.4646 17.988 20.4657 18.0707L20.4668 23.2568C20.4674 23.7046 20.6454 24.1339 20.962 24.4507C21.2785 24.7675 21.7077 24.9459 22.1556 24.9467C22.628 24.9467 23.9223 24.9444 23.9223 24.9444L23.9229 22.781L23.9235 20.3683C23.9236 20.2338 23.8906 20.1014 23.8272 19.9827C23.7639 19.8641 23.6723 19.7629 23.5605 19.6881L21.9859 18.6185L21.9855 21.0472C21.9855 21.0649 21.982 21.0823 21.9753 21.0986C21.9685 21.1149 21.9586 21.1297 21.9462 21.1422C21.9337 21.1547 21.9189 21.1645 21.9026 21.1713C21.8863 21.178 21.8688 21.1815 21.8512 21.1815C21.8336 21.1815 21.8161 21.178 21.7998 21.1713C21.7835 21.1645 21.7687 21.1547 21.7563 21.1422C21.7438 21.1297 21.7339 21.1149 21.7272 21.0986C21.7204 21.0823 21.7169 21.0649 21.7169 21.0472C21.7169 21.0212 21.714 18.3914 21.714 18.0707ZM22.5569 14.2015C22.3655 14.2459 22.186 14.3311 22.0306 14.4512C21.8752 14.5713 21.7476 14.7236 21.6565 14.8976V14.5077L20.7456 14.7232L20.7467 17.2135C20.9065 17.1503 21.0806 17.1326 21.2499 17.1622C21.4191 17.1918 21.5768 17.2676 21.7057 17.3812V15.7734C21.7057 15.3881 21.8973 15.0804 22.1712 15.0201C22.3772 14.9749 22.5492 15.0485 22.5492 15.4154L22.5499 17.7614L23.5093 17.5365V15.0547C23.5093 14.453 23.2776 14.0324 22.5569 14.2015ZM36.4965 10.6502C36.3792 10.6503 36.2645 10.6156 36.1668 10.5505C36.0692 10.4853 35.9931 10.3927 35.9481 10.2843C35.9032 10.1759 35.8914 10.0567 35.9142 9.94156C35.9371 9.82646 35.9936 9.72073 36.0766 9.63774C36.1595 9.55476 36.2652 9.49825 36.3803 9.47537C36.4954 9.45249 36.6147 9.46427 36.7231 9.50921C36.8315 9.55416 36.9241 9.63024 36.9893 9.72785C37.0544 9.82546 37.0891 9.94019 37.0891 10.0575C37.0889 10.2147 37.0264 10.3653 36.9154 10.4764C36.8043 10.5875 36.6537 10.65 36.4965 10.6502ZM36.4965 9.53881C36.394 9.53879 36.2937 9.56918 36.2084 9.62615C36.1231 9.68312 36.0566 9.7641 36.0173 9.85885C35.9781 9.95361 35.9678 10.0579 35.9878 10.1585C36.0078 10.2591 36.0571 10.3515 36.1296 10.4241C36.2021 10.4966 36.2945 10.546 36.3951 10.566C36.4957 10.5861 36.6 10.5758 36.6948 10.5366C36.7896 10.4974 36.8706 10.4309 36.9276 10.3456C36.9846 10.2604 37.015 10.1601 37.015 10.0575C37.0149 9.92004 36.9603 9.78821 36.8631 9.69096C36.7659 9.59371 36.634 9.539 36.4965 9.53881Z" fill="#231F20"/>
<path d="M36.2803 9.7042H36.5358C36.5608 9.70152 36.5861 9.70451 36.6097 9.71294C36.6334 9.72137 36.6549 9.73502 36.6725 9.75289C36.6902 9.77075 36.7036 9.79237 36.7117 9.81612C36.7199 9.83988 36.7226 9.86517 36.7196 9.89011C36.7196 9.9841 36.6779 10.0563 36.5991 10.0686V10.0699C36.6708 10.0773 36.7086 10.1169 36.7122 10.2187C36.7136 10.2646 36.7143 10.3215 36.7165 10.3658C36.7165 10.3783 36.7197 10.3905 36.7257 10.4015C36.7317 10.4124 36.7404 10.4216 36.7509 10.4283H36.6202C36.6077 10.4092 36.601 10.3869 36.6007 10.3641C36.5967 10.3208 36.5977 10.28 36.5958 10.2274C36.5938 10.1484 36.5696 10.1138 36.4903 10.1138H36.3957V10.4282H36.2803V9.7042ZM36.4882 10.0267C36.5039 10.0281 36.5197 10.026 36.5345 10.0206C36.5493 10.0152 36.5627 10.0066 36.5738 9.99533C36.5848 9.9841 36.5933 9.97056 36.5985 9.95568C36.6036 9.94079 36.6055 9.92495 36.6038 9.90928C36.6038 9.83204 36.5705 9.79142 36.4943 9.79142H36.3957V10.0267H36.4882Z" fill="#231F20"/>
</g>
</svg>
