<svg width="37" height="36" viewBox="0 0 37 36" fill="none" xmlns="http://www.w3.org/2000/svg">
<rect x="0.5" width="36" height="36" rx="18" fill="white"/>
<path d="M18.4998 23.8334C21.7215 23.8334 24.3332 21.2217 24.3332 18.0001C24.3332 14.7784 21.7215 12.1667 18.4998 12.1667C15.2782 12.1667 12.6665 14.7784 12.6665 18.0001C12.6665 21.2217 15.2782 23.8334 18.4998 23.8334Z" fill="#060709"/>
<path d="M18.5002 27.1333C18.0418 27.1333 17.6668 26.7916 17.6668 26.3333V26.2666C17.6668 25.8083 18.0418 25.4333 18.5002 25.4333C18.9585 25.4333 19.3335 25.8083 19.3335 26.2666C19.3335 26.7249 18.9585 27.1333 18.5002 27.1333ZM24.4502 24.7833C24.2335 24.7833 24.0252 24.6999 23.8585 24.5416L23.7502 24.4333C23.4252 24.1083 23.4252 23.5833 23.7502 23.2583C24.0752 22.9333 24.6002 22.9333 24.9252 23.2583L25.0335 23.3666C25.3585 23.6916 25.3585 24.2166 25.0335 24.5416C24.8752 24.6999 24.6668 24.7833 24.4502 24.7833ZM12.5502 24.7833C12.3335 24.7833 12.1252 24.6999 11.9585 24.5416C11.6335 24.2166 11.6335 23.6916 11.9585 23.3666L12.0668 23.2583C12.3918 22.9333 12.9168 22.9333 13.2418 23.2583C13.5668 23.5833 13.5668 24.1083 13.2418 24.4333L13.1335 24.5416C12.9752 24.6999 12.7585 24.7833 12.5502 24.7833ZM26.8335 18.8333H26.7668C26.3085 18.8333 25.9335 18.4583 25.9335 17.9999C25.9335 17.5416 26.3085 17.1666 26.7668 17.1666C27.2252 17.1666 27.6335 17.5416 27.6335 17.9999C27.6335 18.4583 27.2918 18.8333 26.8335 18.8333ZM10.2335 18.8333H10.1668C9.7085 18.8333 9.3335 18.4583 9.3335 17.9999C9.3335 17.5416 9.7085 17.1666 10.1668 17.1666C10.6252 17.1666 11.0335 17.5416 11.0335 17.9999C11.0335 18.4583 10.6918 18.8333 10.2335 18.8333ZM24.3418 12.9916C24.1252 12.9916 23.9168 12.9083 23.7502 12.7499C23.4252 12.4249 23.4252 11.8999 23.7502 11.5749L23.8585 11.4666C24.1835 11.1416 24.7085 11.1416 25.0335 11.4666C25.3585 11.7916 25.3585 12.3166 25.0335 12.6416L24.9252 12.7499C24.7668 12.9083 24.5585 12.9916 24.3418 12.9916ZM12.6585 12.9916C12.4418 12.9916 12.2335 12.9083 12.0668 12.7499L11.9585 12.6333C11.6335 12.3083 11.6335 11.7833 11.9585 11.4583C12.2835 11.1333 12.8085 11.1333 13.1335 11.4583L13.2418 11.5666C13.5668 11.8916 13.5668 12.4166 13.2418 12.7416C13.0835 12.9083 12.8668 12.9916 12.6585 12.9916ZM18.5002 10.5333C18.0418 10.5333 17.6668 10.1916 17.6668 9.73325V9.66659C17.6668 9.20825 18.0418 8.83325 18.5002 8.83325C18.9585 8.83325 19.3335 9.20825 19.3335 9.66659C19.3335 10.1249 18.9585 10.5333 18.5002 10.5333Z" fill="#060709"/>
</svg>
