<svg width="35" height="34" viewBox="0 0 35 34" fill="none" xmlns="http://www.w3.org/2000/svg">
<rect x="0.5" width="34" height="34" rx="17" fill="white"/>
<path d="M27.0611 12.7258C27.5643 14.0389 27.8104 15.4889 27.8104 16.9993C27.8104 19.7912 26.9676 22.3756 25.2234 24.2703C23.4702 26.174 20.8708 27.3111 17.4993 27.3111C14.1278 27.3111 11.5277 26.174 9.77456 24.2703C8.03038 22.3762 7.1875 19.7912 7.1875 16.9993C7.1875 14.2074 8.03038 11.6224 9.77456 9.72831C11.5277 7.82462 14.1278 6.6875 17.5 6.6875C19.3033 6.6875 20.8859 7.01269 22.2362 7.60669C22.0354 7.74117 21.8735 7.92614 21.7668 8.143C21.6601 8.35986 21.6124 8.60098 21.6284 8.84212C20.4755 8.34437 19.1026 8.0625 17.5 8.0625C14.4544 8.0625 12.242 9.08 10.7873 10.6599C9.32219 12.2487 8.5625 14.4755 8.5625 16.9986C8.5625 19.5224 9.32288 21.7492 10.7866 23.3387C12.2413 24.9186 14.453 25.9361 17.4993 25.9361C20.5449 25.9361 22.7573 24.9186 24.2121 23.3387C25.6758 21.7499 26.4361 19.5231 26.4361 16.9993C26.4361 15.5844 26.1969 14.2631 25.7287 13.0943L26.7709 12.8337C26.8741 12.8083 26.9703 12.7719 27.0611 12.7258Z" fill="#060709"/>
<path d="M10.8263 17.2014C10.9552 17.0725 11.1301 17.0001 11.3124 17.0001C11.4947 17.0001 11.6695 17.0725 11.7984 17.2014C11.8967 17.299 12.4536 17.6874 13.3749 17.6874C14.2961 17.6874 14.853 17.299 14.9513 17.2014C15.081 17.0761 15.2546 17.0068 15.4349 17.0084C15.6151 17.01 15.7876 17.0823 15.915 17.2097C16.0425 17.3372 16.1148 17.5096 16.1164 17.6899C16.1179 17.8702 16.0486 18.0438 15.9234 18.1735C15.5625 18.5344 14.6536 19.0624 13.3749 19.0624C12.0961 19.0624 11.1872 18.5344 10.8263 18.1735C10.6974 18.0446 10.625 17.8697 10.625 17.6874C10.625 17.5051 10.6974 17.3303 10.8263 17.2014ZM19.0763 17.2014C19.2052 17.0725 19.3801 17.0001 19.5624 17.0001C19.7447 17.0001 19.9195 17.0725 20.0484 17.2014C20.146 17.299 20.7036 17.6874 21.6249 17.6874C22.5461 17.6874 23.103 17.299 23.2013 17.2014C23.331 17.0761 23.5046 17.0068 23.6849 17.0084C23.8651 17.01 24.0376 17.0823 24.165 17.2097C24.2925 17.3372 24.3648 17.5096 24.3664 17.6899C24.3679 17.8702 24.2986 18.0438 24.1734 18.1735C23.8125 18.5344 22.9036 19.0624 21.6249 19.0624C20.3461 19.0624 19.4372 18.5344 19.0763 18.1735C18.9474 18.0446 18.875 17.8697 18.875 17.6874C18.875 17.5051 18.9474 17.3303 19.0763 17.2014ZM16.1249 22.4999C16.1249 22.1353 16.2697 21.7855 16.5276 21.5277C16.7854 21.2698 17.1352 21.1249 17.4999 21.1249C17.8645 21.1249 18.2143 21.2698 18.4721 21.5277C18.73 21.7855 18.8749 22.1353 18.8749 22.4999C18.8749 22.8646 18.73 23.2143 18.4721 23.4722C18.2143 23.7301 17.8645 23.8749 17.4999 23.8749C17.1352 23.8749 16.7854 23.7301 16.5276 23.4722C16.2697 23.2143 16.1249 22.8646 16.1249 22.4999ZM26.3645 8.36974C26.4231 8.2522 26.4469 8.12032 26.4329 7.9897C26.419 7.85909 26.3679 7.7352 26.2857 7.63271C26.2036 7.53022 26.0938 7.45342 25.9693 7.41139C25.8448 7.36936 25.711 7.36386 25.5835 7.39555L22.8335 8.08305C22.7446 8.10366 22.6606 8.14178 22.5866 8.19517C22.5126 8.24856 22.4499 8.31616 22.4023 8.39403C22.3547 8.47189 22.323 8.55846 22.3092 8.64868C22.2954 8.7389 22.2997 8.83097 22.3218 8.91952C22.3439 9.00807 22.3835 9.09133 22.4381 9.16443C22.4928 9.23754 22.5614 9.29903 22.6401 9.34532C22.7188 9.39161 22.8059 9.42177 22.8963 9.43404C22.9868 9.44631 23.0788 9.44045 23.1669 9.4168L24.4663 9.09161L23.0727 11.8801C23.0141 11.9976 22.9903 12.1295 23.0043 12.2601C23.0182 12.3908 23.0693 12.5146 23.1515 12.6171C23.2336 12.7196 23.3435 12.7964 23.4679 12.8385C23.5924 12.8805 23.7262 12.886 23.8537 12.8543L26.6037 12.1668C26.6926 12.1462 26.7766 12.1081 26.8506 12.0547C26.9246 12.0013 26.9873 11.9337 27.0349 11.8558C27.0825 11.778 27.1142 11.6914 27.128 11.6012C27.1418 11.5109 27.1376 11.4189 27.1154 11.3303C27.0933 11.2418 27.0537 11.1585 26.9991 11.0854C26.9444 11.0123 26.8758 10.9508 26.7971 10.9045C26.7184 10.8582 26.6313 10.8281 26.5409 10.8158C26.4504 10.8035 26.3584 10.8094 26.2703 10.833L24.9709 11.1582L26.3645 8.36974ZM19.9061 10.1249C19.8149 10.1249 19.7275 10.1611 19.663 10.2256C19.5986 10.2901 19.5624 10.3775 19.5624 10.4687C19.5624 10.5598 19.5986 10.6473 19.663 10.7117C19.7275 10.7762 19.8149 10.8124 19.9061 10.8124H21.2811L19.6311 13.0124C19.5928 13.0635 19.5695 13.1242 19.5637 13.1878C19.558 13.2514 19.5701 13.3153 19.5986 13.3724C19.6272 13.4295 19.6711 13.4775 19.7254 13.5111C19.7797 13.5446 19.8423 13.5624 19.9061 13.5624H21.9686C22.0598 13.5624 22.1472 13.5262 22.2117 13.4617C22.2761 13.3973 22.3124 13.3098 22.3124 13.2187C22.3124 13.1275 22.2761 13.0401 22.2117 12.9756C22.1472 12.9111 22.0598 12.8749 21.9686 12.8749H20.5936L22.2436 10.6749C22.2819 10.6239 22.3052 10.5631 22.311 10.4995C22.3167 10.436 22.3046 10.372 22.2761 10.3149C22.2475 10.2578 22.2036 10.2098 22.1493 10.1763C22.095 10.1427 22.0324 10.1249 21.9686 10.1249H19.9061ZM16.1427 11.735C16.1716 11.6487 16.2336 11.5773 16.315 11.5365C16.3965 11.4958 16.4908 11.4891 16.5772 11.5178L18.6397 12.2053C18.7026 12.2263 18.7581 12.2651 18.7994 12.3169C18.8407 12.3687 18.8662 12.4314 18.8728 12.4974C18.8793 12.5634 18.8666 12.6298 18.8363 12.6888C18.8059 12.7477 18.7591 12.7966 18.7016 12.8295L16.9636 13.8237L18.2974 14.2685C18.3413 14.2818 18.3822 14.3038 18.4175 14.3332C18.4529 14.3626 18.4819 14.3988 18.503 14.4397C18.5241 14.4805 18.5368 14.5252 18.5404 14.571C18.5439 14.6168 18.5382 14.6629 18.5237 14.7065C18.5091 14.7501 18.4859 14.7903 18.4555 14.8248C18.4251 14.8592 18.3881 14.8873 18.3467 14.9072C18.3053 14.9271 18.2603 14.9386 18.2144 14.9408C18.1685 14.943 18.1226 14.936 18.0794 14.9202L16.0169 14.2327C15.954 14.2117 15.8986 14.1729 15.8572 14.1211C15.8159 14.0693 15.7904 14.0066 15.7839 13.9406C15.7773 13.8747 15.79 13.8082 15.8204 13.7493C15.8508 13.6903 15.8975 13.6414 15.955 13.6085L17.6924 12.6137L16.3586 12.1689C16.2723 12.1399 16.2011 12.0778 16.1605 11.9964C16.1199 11.9149 16.1133 11.8207 16.142 11.7344L16.1427 11.735Z" fill="#060709"/>
</svg>
