<svg width="84" height="120" viewBox="0 0 84 120" fill="none" xmlns="http://www.w3.org/2000/svg">
<rect x="24" y="26" width="57" height="92" rx="8" fill="#9BDDA2"/>
<path fill-rule="evenodd" clip-rule="evenodd" d="M9 15C8.20435 15 7.44129 15.3161 6.87868 15.8787C6.31607 16.4413 6 17.2044 6 18V111C6 111.796 6.31607 112.559 6.87868 113.121C7.44129 113.684 8.20435 114 9 114H75C75.7956 114 76.5587 113.684 77.1213 113.121C77.6839 112.559 78 111.796 78 111V18C78 17.2044 77.6839 16.4413 77.1213 15.8787C76.5587 15.3161 75.7956 15 75 15H58.251V9H75C77.3869 9 79.6761 9.94821 81.364 11.636C83.0518 13.3239 84 15.6131 84 18V111C84 113.387 83.0518 115.676 81.364 117.364C79.6761 119.052 77.3869 120 75 120H9C6.61305 120 4.32387 119.052 2.63604 117.364C0.94821 115.676 0 113.387 0 111V18C0 15.6131 0.94821 13.3239 2.63604 11.636C4.32387 9.94821 6.61305 9 9 9H25.749V15H9Z" fill="white"/>
<path fill-rule="evenodd" clip-rule="evenodd" d="M21 9C21 6.61305 21.9482 4.32387 23.636 2.63604C25.3239 0.948212 27.6131 0 30 0H54C56.3869 0 58.6761 0.948212 60.364 2.63604C62.0518 4.32387 63 6.61305 63 9V15C63 17.3869 62.0518 19.6761 60.364 21.364C58.6761 23.0518 56.3869 24 54 24H30C27.6131 24 25.3239 23.0518 23.636 21.364C21.9482 19.6761 21 17.3869 21 15V9ZM30 6C29.2044 6 28.4413 6.31607 27.8787 6.87868C27.3161 7.44129 27 8.20435 27 9V15C27 15.7956 27.3161 16.5587 27.8787 17.1213C28.4413 17.6839 29.2044 18 30 18H54C54.7957 18 55.5587 17.6839 56.1213 17.1213C56.6839 16.5587 57 15.7956 57 15V9C57 8.20435 56.6839 7.44129 56.1213 6.87868C55.5587 6.31607 54.7957 6 54 6H30ZM15 51C15 50.2043 15.3161 49.4413 15.8787 48.8787C16.4413 48.3161 17.2044 48 18 48H39C39.7956 48 40.5587 48.3161 41.1213 48.8787C41.6839 49.4413 42 50.2043 42 51C42 51.7957 41.6839 52.5587 41.1213 53.1213C40.5587 53.6839 39.7956 54 39 54H18C17.2044 54 16.4413 53.6839 15.8787 53.1213C15.3161 52.5587 15 51.7957 15 51ZM15 36C15 35.2043 15.3161 34.4413 15.8787 33.8787C16.4413 33.3161 17.2044 33 18 33H64.5C65.2957 33 66.0587 33.3161 66.6213 33.8787C67.1839 34.4413 67.5 35.2043 67.5 36C67.5 36.7957 67.1839 37.5587 66.6213 38.1213C66.0587 38.6839 65.2957 39 64.5 39H18C17.2044 39 16.4413 38.6839 15.8787 38.1213C15.3161 37.5587 15 36.7957 15 36ZM21 75V81H27V75H21ZM18 69C17.2044 69 16.4413 69.3161 15.8787 69.8787C15.3161 70.4413 15 71.2044 15 72V84C15 84.7956 15.3161 85.5587 15.8787 86.1213C16.4413 86.6839 17.2044 87 18 87H30C30.7956 87 31.5587 86.6839 32.1213 86.1213C32.6839 85.5587 33 84.7956 33 84V72C33 71.2044 32.6839 70.4413 32.1213 69.8787C31.5587 69.3161 30.7956 69 30 69H18ZM54 75C54.4048 75.0185 54.8092 74.9548 55.1888 74.8128C55.5683 74.6707 55.9151 74.4532 56.2083 74.1734C56.5015 73.8936 56.7349 73.5574 56.8945 73.1849C57.0542 72.8124 57.1367 72.4114 57.1371 72.0061C57.1375 71.6009 57.0558 71.1997 56.8969 70.8269C56.738 70.4541 56.5052 70.1174 56.2126 69.837C55.92 69.5566 55.5736 69.3384 55.1944 69.1956C54.8151 69.0528 54.4109 68.9883 54.006 69.006C53.2343 69.0398 52.5054 69.3699 51.971 69.9276C51.4366 70.4853 51.1379 71.2277 51.1371 72.0001C51.1363 72.7726 51.4335 73.5155 51.9668 74.0743C52.5001 74.6331 53.2284 74.9647 54 75ZM54 81C56.3869 81 58.6761 80.0518 60.364 78.364C62.0518 76.6761 63 74.3869 63 72C63 69.6131 62.0518 67.3239 60.364 65.636C58.6761 63.9482 56.3869 63 54 63C51.6131 63 49.3239 63.9482 47.636 65.636C45.9482 67.3239 45 69.6131 45 72C45 74.3869 45.9482 76.6761 47.636 78.364C49.3239 80.0518 51.6131 81 54 81ZM42 93.84C42.0524 93.7786 42.1075 93.7196 42.165 93.663C42.657 93.183 43.605 92.547 45.093 91.914C48.093 90.639 51.795 90 54 90C56.205 90 59.907 90.639 62.907 91.914C64.395 92.544 65.343 93.183 65.835 93.663C65.8925 93.7186 65.9475 93.7766 66 93.837V99H42V93.84ZM54 84C47.991 84 36 87.198 36 93.546V105H72V93.546C72 87.198 60.009 84 54 84Z" fill="white"/>
</svg>
