<svg width="32" height="32" viewBox="0 0 32 32" fill="none" xmlns="http://www.w3.org/2000/svg">
<path d="M17.3333 3.99967C22.5066 3.99967 26.6666 8.18634 26.6666 13.333C26.6666 17.0663 24.4933 20.253 21.3333 21.7463V27.9997H12V23.9997H10.6666C9.18664 23.9997 7.99997 22.813 7.99997 21.333V17.333H5.99997C5.43997 17.333 5.11997 16.6663 5.43997 16.253L7.99997 12.8797C8.11745 10.4841 9.15228 8.22553 10.8899 6.57227C12.6276 4.91901 14.9348 3.99782 17.3333 3.99967ZM17.3333 1.33301C11.2133 1.33301 6.14664 5.89301 5.41331 11.8663L3.33331 14.6663H3.29331L3.26664 14.7063C2.53331 15.7197 2.43997 17.053 3.01331 18.1597C3.49331 19.0797 4.34664 19.7197 5.33331 19.9197V21.333C5.33331 23.7997 7.03997 25.893 9.33331 26.493V30.6663H24V23.333C27.3333 21.1063 29.3333 17.413 29.3333 13.333C29.3333 6.70634 23.9466 1.33301 17.3333 1.33301ZM23.1066 12.3997L20.4933 13.0797L22.4133 15.0263C22.88 15.4797 22.88 16.253 22.4133 16.7197C21.9466 17.1863 21.1733 17.1863 20.72 16.7197L18.7866 14.7997L18.0933 17.413C17.9333 18.0663 17.28 18.4263 16.6666 18.2663C16.5114 18.2274 16.3654 18.1582 16.237 18.0626C16.1086 17.9671 16.0004 17.8471 15.9186 17.7095C15.8368 17.5719 15.783 17.4195 15.7604 17.2611C15.7377 17.1027 15.7467 16.9413 15.7866 16.7863L16.4933 14.173L13.88 14.8797C13.725 14.9196 13.5636 14.9286 13.4052 14.9059C13.2468 14.8833 13.0944 14.8295 12.9568 14.7477C12.8193 14.6659 12.6992 14.5577 12.6037 14.4293C12.5081 14.3009 12.4389 14.1549 12.4 13.9997C12.24 13.3997 12.6133 12.733 13.2533 12.573L15.8666 11.8797L13.9466 9.94634C13.746 9.71724 13.6401 9.42045 13.6501 9.11611C13.6602 8.81177 13.7856 8.52264 14.001 8.30732C14.2163 8.092 14.5054 7.96659 14.8097 7.95651C15.1141 7.94642 15.4109 8.05242 15.64 8.25301L17.5866 10.173L18.2666 7.55967C18.4266 6.90634 19.0933 6.53301 19.72 6.70634C20.3733 6.87967 20.7466 7.53301 20.5733 8.17301L19.8666 10.7997L22.4933 10.093C23.1333 9.91967 23.7866 10.293 23.96 10.9463C24.1333 11.573 23.76 12.2397 23.1066 12.3997Z" fill="#9D9EA2" stroke="white" stroke-width="1.6"/>
</svg>
