<svg width="12" height="13" viewBox="0 0 12 13" fill="none" xmlns="http://www.w3.org/2000/svg">
<path d="M6.86495 2.25531L7.74495 4.01531C7.86495 4.26031 8.18495 4.49531 8.45495 4.54031L10.05 4.80531C11.07 4.97531 11.31 5.71531 10.575 6.44531L9.33495 7.68531C9.12495 7.89531 9.00995 8.30031 9.07495 8.59031L9.42995 10.1253C9.70995 11.3403 9.06495 11.8103 7.98995 11.1753L6.49495 10.2903C6.22495 10.1303 5.77995 10.1303 5.50495 10.2903L4.00995 11.1753C2.93995 11.8103 2.28995 11.3353 2.56995 10.1253L2.92495 8.59031C2.98995 8.30031 2.87495 7.89531 2.66495 7.68531L1.42495 6.44531C0.694954 5.71531 0.929955 4.97531 1.94995 4.80531L3.54495 4.54031C3.80995 4.49531 4.12995 4.26031 4.24995 4.01531L5.12995 2.25531C5.60995 1.30031 6.38995 1.30031 6.86495 2.25531Z" fill="#F2BC1B" stroke="#F2BC1B" stroke-width="1.5" stroke-linecap="round" stroke-linejoin="round"/>
</svg>
