<svg width="56" height="56" viewBox="0 0 56 56" fill="none" xmlns="http://www.w3.org/2000/svg">
<path d="M50.1665 36.667C50.5437 36.667 50.8332 36.9565 50.8332 37.3337V39.667C50.8332 43.102 48.1863 45.9038 44.8154 46.1495C44.5474 42.2624 41.2854 39.167 37.3332 39.167C33.375 39.167 30.1091 42.2717 29.8498 46.167H26.1499C25.8906 42.2717 22.6247 39.167 18.6665 39.167C14.7143 39.167 11.4522 42.2624 11.1843 46.1495C7.81341 45.9038 5.1665 43.102 5.1665 39.667V35.0003C5.1665 33.9931 5.99265 33.167 6.99984 33.167H29.1665C32.6626 33.167 35.4998 30.3298 35.4998 26.8337V14.0003C35.4998 12.9931 36.326 12.167 37.3332 12.167H39.2932C40.79 12.167 42.1669 12.9777 42.9199 14.2732C42.9202 14.2737 42.9205 14.2742 42.9208 14.2747L44.4107 16.8821C44.4108 16.8823 44.4109 16.8825 44.4111 16.8828C44.4184 16.8962 44.4236 16.9215 44.4035 16.9558C44.3939 16.9721 44.3818 16.9837 44.3705 16.9905C44.3608 16.9964 44.3495 17.0003 44.3332 17.0003C40.837 17.0003 37.9998 19.8375 37.9998 23.3337V30.3337C37.9998 33.8298 40.837 36.667 44.3332 36.667H50.1665Z" fill="#05422C" stroke="#05422C"/>
<path d="M22.8333 46.6667C22.8333 48.9679 20.9679 50.8333 18.6667 50.8333C16.3655 50.8333 14.5 48.9679 14.5 46.6667C14.5 44.3655 16.3655 42.5 18.6667 42.5C20.9679 42.5 22.8333 44.3655 22.8333 46.6667Z" fill="#C3D2CC" stroke="#C3D2CC"/>
<path d="M41.4998 46.6667C41.4998 48.9679 39.6344 50.8333 37.3332 50.8333C35.032 50.8333 33.1665 48.9679 33.1665 46.6667C33.1665 44.3655 35.032 42.5 37.3332 42.5C39.6344 42.5 41.4998 44.3655 41.4998 46.6667Z" fill="#C3D2CC" stroke="#C3D2CC"/>
<path d="M51.3333 29.2367V32.6667H44.3333C43.05 32.6667 42 31.6167 42 30.3333V23.3333C42 22.05 43.05 21 44.3333 21H47.3433L50.7267 26.9267C51.1233 27.6267 51.3333 28.42 51.3333 29.2367Z" fill="#C3D2CC"/>
<path d="M30.5203 4.66699H13.277C9.10033 4.66699 5.60033 7.65366 4.83033 11.6203H15.027C15.9137 11.6203 16.6137 12.3437 16.6137 13.2303C16.6137 14.117 15.9137 14.817 15.027 14.817H4.66699V18.037H10.7337C11.6203 18.037 12.3437 18.7603 12.3437 19.647C12.3437 20.5337 11.6203 21.2337 10.7337 21.2337H4.66699V24.4537H6.46366C7.35033 24.4537 8.07366 25.177 8.07366 26.0637C8.07366 26.9503 7.35033 27.6503 6.46366 27.6503H4.66699V28.187C4.66699 29.4703 5.71699 30.5203 7.00033 30.5203H28.3503C30.7303 30.5203 32.667 28.5837 32.667 26.2037V6.81366C32.667 5.62366 31.7103 4.66699 30.5203 4.66699Z" fill="#05422C"/>
<path d="M4.83016 11.6201H4.48016H2.1935C1.30683 11.6201 0.583496 12.3435 0.583496 13.2301C0.583496 14.1168 1.30683 14.8168 2.1935 14.8168H4.31683H4.66683V13.2768C4.66683 12.7168 4.73683 12.1568 4.83016 11.6201Z" fill="#05422C"/>
<path d="M4.31683 18.0371H2.1935C1.30683 18.0371 0.583496 18.7604 0.583496 19.6471C0.583496 20.5338 1.30683 21.2338 2.1935 21.2338H4.31683H4.66683V18.0371H4.31683Z" fill="#05422C"/>
<path d="M4.31683 24.4541H2.1935C1.30683 24.4541 0.583496 25.1774 0.583496 26.0641C0.583496 26.9508 1.30683 27.6508 2.1935 27.6508H4.31683H4.66683V24.4541H4.31683Z" fill="#05422C"/>
</svg>
