<svg width="56" height="56" viewBox="0 0 56 56" fill="none" xmlns="http://www.w3.org/2000/svg">
<path d="M54.5783 23.6469L49.219 13.3656C48.8453 12.6541 48.2088 12.1166 47.4448 11.8673C46.6807 11.6181 45.8496 11.6769 45.1283 12.0312L39.944 14.6344H36.1596L28.8533 11.3312C28.1896 11.0184 27.4332 10.9638 26.7315 11.1781L15.9252 14.3281L10.8721 11.7906C10.1499 11.442 9.32077 11.3861 8.55832 11.6349C7.79588 11.8836 7.15918 12.4175 6.78146 13.125L1.42209 23.4281C1.22738 23.7867 1.10738 24.1809 1.06932 24.5872C1.03126 24.9934 1.07593 25.4031 1.20065 25.7915C1.32537 26.18 1.52754 26.5392 1.79494 26.8473C2.06235 27.1554 2.38944 27.4062 2.75646 27.5844L8.05021 30.2312L19.9065 39.4844C20.237 39.7587 20.6262 39.9533 21.044 40.0531L33.7315 43.225C33.9671 43.2864 34.2099 43.3159 34.4533 43.3125C35.2651 43.3102 36.0432 42.9879 36.619 42.4156L44.669 34.3656H44.7565L48.0815 30.4062L53.244 27.825C53.6099 27.6399 53.9355 27.3841 54.2021 27.0725C54.4686 26.7609 54.6709 26.3995 54.7971 26.0094C54.9196 25.6208 54.9634 25.2117 54.9258 24.8061C54.8882 24.4004 54.7701 24.0063 54.5783 23.6469ZM43.5315 31.6531L34.8908 25.375C34.6633 25.2129 34.39 25.1276 34.1107 25.1315C33.8314 25.1355 33.5606 25.2284 33.3377 25.3969L30.5377 27.4969C29.5518 28.2319 28.3549 28.6289 27.1252 28.6289C25.8955 28.6289 24.6986 28.2319 23.7127 27.4969L22.5315 26.6C22.4761 26.5655 22.4307 26.517 22.4 26.4594C22.3693 26.4018 22.3543 26.3371 22.3565 26.2719C22.3513 26.2107 22.3604 26.1492 22.3832 26.0923C22.406 26.0353 22.4418 25.9844 22.4877 25.9437L31.0408 17.3687C31.1288 17.3008 31.236 17.2625 31.3471 17.2594H39.4627L45.6752 29.1594L43.5315 31.6531ZM3.71896 24.9812C3.69532 24.9252 3.68499 24.8644 3.68879 24.8037C3.69258 24.743 3.7104 24.6839 3.74084 24.6312L9.12209 14.3281C9.16171 14.2594 9.21929 14.2027 9.28865 14.1642C9.35801 14.1256 9.43654 14.1067 9.51584 14.1094C9.57764 14.1007 9.64038 14.1164 9.69084 14.1531L13.9783 16.275L8.18146 27.3656L3.93771 25.2219C3.88541 25.201 3.83854 25.1684 3.80064 25.1267C3.76275 25.0851 3.73482 25.0353 3.71896 24.9812ZM34.7815 40.5562C34.7275 40.6087 34.6608 40.6463 34.588 40.6655C34.5152 40.6846 34.4387 40.6847 34.3658 40.6656L21.6783 37.5156L21.5252 37.4281L10.4127 28.7437L16.6252 16.8437L27.4752 13.6937C27.5771 13.669 27.6842 13.6766 27.7815 13.7156L30.2533 14.8312C29.8516 14.9882 29.4867 15.2265 29.1815 15.5312L20.6283 24.0844C20.3147 24.3928 20.0717 24.7657 19.9161 25.1772C19.7606 25.5887 19.6962 26.0291 19.7274 26.4679C19.7586 26.9067 19.8846 27.3335 20.0968 27.7189C20.309 28.1043 20.6023 28.439 20.9565 28.7L22.1377 29.5969C23.5822 30.6627 25.3301 31.2378 27.1252 31.2378C28.9203 31.2378 30.6683 30.6627 32.1127 29.5969L34.1471 28.0656L41.7377 33.6L34.7815 40.5562ZM52.2815 25.2C52.2671 25.2574 52.2399 25.3108 52.202 25.3562C52.1642 25.4017 52.1166 25.438 52.0627 25.4625L47.819 27.5844L42.0221 16.5156L46.3096 14.3719C46.4116 14.3257 46.5274 14.3203 46.6332 14.357C46.739 14.3936 46.8267 14.4694 46.8783 14.5687L52.2596 24.8719C52.2898 24.9206 52.3077 24.976 52.3115 25.0332C52.3153 25.0904 52.305 25.1477 52.2815 25.2ZM25.769 46.8781C25.6971 47.1618 25.5339 47.4139 25.3047 47.5957C25.0754 47.7775 24.7928 47.879 24.5002 47.8844L24.1721 47.8406L17.5877 46.1781C17.1175 46.0665 16.6818 45.8412 16.319 45.5219L11.3971 41.2344C11.2427 41.1307 11.1121 40.9955 11.014 40.8376C10.9159 40.6796 10.8524 40.5027 10.8278 40.3184C10.8032 40.1341 10.818 39.9467 10.8713 39.7685C10.9246 39.5904 11.0151 39.4256 11.1369 39.2851C11.2587 39.1446 11.4089 39.0316 11.5776 38.9535C11.7464 38.8755 11.9298 38.8341 12.1157 38.8323C12.3016 38.8304 12.4858 38.8681 12.6561 38.9428C12.8264 39.0175 12.9788 39.1276 13.1033 39.2656L18.0471 43.5531C18.0981 43.5951 18.1579 43.625 18.2221 43.6406L24.8283 45.2812C25.1645 45.3687 25.4523 45.586 25.6287 45.8853C25.805 46.1846 25.8554 46.5417 25.769 46.8781Z" fill="#05422C"/>
</svg>
