<svg width="14" height="12" viewBox="0 0 14 12" fill="none" xmlns="http://www.w3.org/2000/svg">
<path d="M13.4526 1.85424C13.0233 2.03899 12.572 2.16765 12.1098 2.23702C12.3259 2.19997 12.6439 1.81102 12.7704 1.65359C12.9627 1.41611 13.1092 1.14502 13.2026 0.854073C13.2026 0.832464 13.2242 0.801595 13.2026 0.78616C13.1917 0.780216 13.1795 0.777101 13.1671 0.777101C13.1547 0.777101 13.1425 0.780216 13.1316 0.78616C12.6297 1.05794 12.0956 1.26537 11.5418 1.40355C11.5225 1.40944 11.502 1.40997 11.4824 1.40508C11.4628 1.40018 11.445 1.39005 11.4307 1.37576C11.3876 1.32444 11.3412 1.27597 11.2918 1.23068C11.0659 1.02831 10.8097 0.862688 10.5324 0.739857C10.1581 0.586306 9.75386 0.519806 9.35012 0.54538C8.95836 0.570121 8.57589 0.675197 8.22648 0.854073C7.8824 1.04266 7.58 1.29886 7.33744 1.60728C7.0823 1.92473 6.8981 2.29313 6.79723 2.68771C6.71405 3.06303 6.70462 3.45095 6.76945 3.82987C6.76945 3.8947 6.76945 3.90396 6.71388 3.8947C4.5129 3.57057 2.70705 2.78958 1.2315 1.11337C1.16667 1.03929 1.13272 1.03929 1.08024 1.11337C0.43816 2.08884 0.74994 3.63231 1.55254 4.39478C1.66058 4.49665 1.77171 4.59543 1.88902 4.68804C1.52103 4.66191 1.16203 4.56219 0.833287 4.39478C0.771548 4.35465 0.737592 4.37626 0.734505 4.45034C0.725754 4.55306 0.725754 4.65632 0.734505 4.75904C0.798916 5.25128 0.992905 5.71758 1.29663 6.11026C1.60036 6.50294 2.00294 6.8079 2.46318 6.99397C2.57538 7.04203 2.69229 7.07824 2.81201 7.10201C2.47134 7.16908 2.12195 7.17951 1.77789 7.13288C1.7038 7.11745 1.67602 7.15758 1.7038 7.22858C2.15758 8.46335 3.14231 8.83995 3.86465 9.04987C3.96343 9.0653 4.06221 9.0653 4.17334 9.09C4.17334 9.09 4.17334 9.09 4.15482 9.10852C3.94182 9.49747 3.08057 9.75986 2.68544 9.89568C1.96424 10.1547 1.19529 10.2538 0.431986 10.1859C0.311596 10.1673 0.283814 10.1704 0.252944 10.1859C0.222075 10.2013 0.252944 10.2352 0.286901 10.2661C0.441247 10.368 0.595593 10.4575 0.756114 10.5439C1.23398 10.8046 1.73919 11.0116 2.26253 11.1613C4.97286 11.9084 8.02274 11.3589 10.057 9.33695C11.6561 7.75027 12.2179 5.56164 12.2179 3.36992C12.2179 3.28657 12.3197 3.23718 12.3784 3.19396C12.7829 2.87876 13.1396 2.5065 13.4372 2.08884C13.4888 2.02659 13.5152 1.94732 13.5113 1.86659V1.86659C13.5113 1.82028 13.5113 1.82954 13.4526 1.85424Z" fill="#33CCFF"/>
</svg>
