<svg width="15" height="14" viewBox="0 0 15 14" fill="none" xmlns="http://www.w3.org/2000/svg">
<path d="M13.3337 6.99967V9.91634C13.3337 11.6663 12.167 12.833 10.417 12.833H4.58366C2.83366 12.833 1.66699 11.6663 1.66699 9.91634V6.99967C1.66699 5.41301 2.62366 4.30467 4.11116 4.11801C4.26283 4.09467 4.42033 4.08301 4.58366 4.08301H10.417C10.5687 4.08301 10.7145 4.08883 10.8545 4.11217C12.3595 4.28717 13.3337 5.40134 13.3337 6.99967Z" stroke="#05422C" stroke-linecap="round" stroke-linejoin="round"/>
<path d="M10.8547 4.11282C10.7147 4.08949 10.5688 4.08367 10.4172 4.08367H4.58383C4.42049 4.08367 4.26299 4.09533 4.11133 4.11866C4.19299 3.95533 4.30966 3.80366 4.44966 3.66366L6.34549 1.76199C7.14466 0.968659 8.43966 0.968659 9.23883 1.76199L10.2597 2.7945C10.633 3.162 10.8313 3.62866 10.8547 4.11282Z" stroke="#05422C" stroke-linecap="round" stroke-linejoin="round"/>
<path d="M13.3337 7.29199H11.5837C10.942 7.29199 10.417 7.81699 10.417 8.45866C10.417 9.10033 10.942 9.62533 11.5837 9.62533H13.3337" stroke="#05422C" stroke-linecap="round" stroke-linejoin="round"/>
</svg>
