<svg width="26" height="26" viewBox="0 0 26 26" fill="none" xmlns="http://www.w3.org/2000/svg">
<g clip-path="url(#clip0_118_6779)">
<rect width="26" height="26" fill="#ECFFF5"/>
<path d="M6.5 18.9805L7.43272 15.5155C6.6805 14.1657 6.44152 12.5906 6.75962 11.0792C7.07771 9.56786 7.93156 8.22161 9.16446 7.2875C10.3974 6.3534 11.9266 5.8941 13.4717 5.99389C15.0167 6.09368 16.4738 6.74586 17.5756 7.83077C18.6775 8.91567 19.3501 10.3605 19.4701 11.9002C19.5902 13.4398 19.1495 14.971 18.2291 16.2128C17.3086 17.4546 15.9701 18.3236 14.4591 18.6604C12.9481 18.9972 11.3661 18.7792 10.0032 18.0465L6.5 18.9805ZM10.1721 16.7498L10.3888 16.878C11.3759 17.4616 12.5289 17.7032 13.668 17.5649C14.8071 17.4267 15.8684 16.9165 16.6865 16.1138C17.5045 15.3111 18.0334 14.2611 18.1907 13.1273C18.348 11.9935 18.1249 10.8396 17.5561 9.84555C16.9873 8.85145 16.1048 8.07296 15.0461 7.63138C13.9874 7.18981 12.812 7.10995 11.7031 7.40426C10.5941 7.69857 9.61393 8.35051 8.91525 9.25849C8.21656 10.1665 7.83862 11.2795 7.84033 12.4241C7.8394 13.3731 8.10254 14.3038 8.60046 15.1126L8.73633 15.336L8.21488 17.2699L10.1721 16.7498Z" fill="#00D95F"/>
<path fill-rule="evenodd" clip-rule="evenodd" d="M15.4307 13.3132C15.3037 13.211 15.155 13.1391 14.9959 13.1029C14.8368 13.0667 14.6716 13.0673 14.5127 13.1044C14.274 13.2033 14.1198 13.5769 13.9656 13.7637C13.933 13.8085 13.8853 13.8399 13.8312 13.852C13.7771 13.8642 13.7204 13.8562 13.6718 13.8297C12.798 13.4883 12.0655 12.8622 11.5934 12.0532C11.5531 12.0027 11.5341 11.9386 11.5402 11.8744C11.5464 11.8102 11.5773 11.7508 11.6264 11.7089C11.7984 11.539 11.9247 11.3287 11.9936 11.0972C12.0089 10.8419 11.9503 10.5876 11.8247 10.3647C11.7276 10.0521 11.5429 9.77371 11.2923 9.56251C11.163 9.50452 11.0197 9.48508 10.8796 9.50653C10.7395 9.52797 10.6086 9.5894 10.5028 9.68338C10.319 9.84156 10.1731 10.0388 10.0758 10.2607C9.9786 10.4826 9.93249 10.7234 9.94092 10.9654C9.94149 11.1012 9.95875 11.2366 9.99233 11.3683C10.0776 11.6847 10.2087 11.987 10.3816 12.2656C10.5063 12.4791 10.6423 12.6857 10.7892 12.8847C11.2664 13.5381 11.8663 14.0929 12.5555 14.5183C12.9013 14.7344 13.271 14.9102 13.6571 15.042C14.0582 15.2234 14.5011 15.293 14.9387 15.2435C15.188 15.2058 15.4242 15.1077 15.6266 14.9576C15.8289 14.8075 15.9912 14.6101 16.0991 14.3827C16.1625 14.2454 16.1817 14.0919 16.1542 13.9432C16.0881 13.6392 15.6805 13.4597 15.4307 13.3132Z" fill="#00D95F"/>
</g>
<defs>
<clipPath id="clip0_118_6779">
<rect width="26" height="26" rx="13" fill="white"/>
</clipPath>
</defs>
</svg>
